<?xml version="1.0" encoding="utf-8"?>
<svg width="85px" height="72px" viewBox="0 0 85 72" version="1.1" xmlns:xlink="http://www.w3.org/1999/xlink" xmlns="http://www.w3.org/2000/svg">
  <desc>Created with Lunacy</desc>
  <g id="renti-Logo" transform="translate(0 -88.99998)">
    <g id="Transparencies">
      <path d="M0 19.5C0 8.73045 8.73045 0 19.5 0C30.2696 0 39 8.73045 39 19.5C39 30.2696 30.2696 39 19.5 39C8.73045 39 0 30.2696 0 19.5Z" transform="translate(21 83.99998)" id="Ellipse" fill="#FF6EE7" fill-opacity="0.4117647" fill-rule="evenodd" stroke="none" />
      <path d="M8.999 0L34.001 0Q34.2219 0 34.4426 0.0108397Q34.6632 0.0216794 34.8831 0.0433326Q35.1029 0.0649859 35.3214 0.0974006Q35.5399 0.129815 35.7566 0.172913Q35.9733 0.216011 36.1876 0.269689Q36.4019 0.323366 36.6133 0.387494Q36.8247 0.451622 37.0327 0.526045Q37.2407 0.600468 37.4448 0.685008Q37.6489 0.769548 37.8486 0.864Q38.0483 0.958453 38.2431 1.06259Q38.4379 1.16673 38.6274 1.2803Q38.8169 1.39387 39.0006 1.5166Q39.1842 1.63934 39.3617 1.77094Q39.5391 1.90253 39.7099 2.04268Q39.8807 2.18282 40.0443 2.33118Q40.208 2.47954 40.3643 2.63575Q40.5205 2.79195 40.6688 2.95564Q40.8172 3.11933 40.9573 3.29009Q41.0975 3.46086 41.2291 3.6383Q41.3607 3.81574 41.4834 3.99942Q41.6061 4.1831 41.7197 4.37259Q41.8333 4.56207 41.9374 4.7569Q42.0415 4.95173 42.136 5.15143Q42.2304 5.35113 42.315 5.55523Q42.3995 5.75933 42.474 5.96733Q42.5484 6.17533 42.6125 6.38673Q42.6766 6.59813 42.7303 6.81242Q42.784 7.02671 42.8271 7.24338Q42.8702 7.46005 42.9026 7.67857Q42.935 7.89709 42.9567 8.11694Q42.9783 8.33679 42.9892 8.55744Q43 8.77809 43 8.999L43 35.001Q43 35.2219 42.9892 35.4426Q42.9783 35.6632 42.9567 35.8831Q42.935 36.1029 42.9026 36.3214Q42.8702 36.5399 42.8271 36.7566Q42.784 36.9733 42.7303 37.1876Q42.6766 37.4019 42.6125 37.6133Q42.5484 37.8247 42.474 38.0327Q42.3995 38.2407 42.315 38.4448Q42.2304 38.6489 42.136 38.8486Q42.0415 39.0483 41.9374 39.2431Q41.8333 39.4379 41.7197 39.6274Q41.6061 39.8169 41.4834 40.0006Q41.3607 40.1843 41.2291 40.3617Q41.0975 40.5391 40.9573 40.7099Q40.8172 40.8807 40.6688 41.0444Q40.5205 41.208 40.3643 41.3643Q40.208 41.5205 40.0444 41.6688Q39.8807 41.8172 39.7099 41.9573Q39.5391 42.0975 39.3617 42.2291Q39.1843 42.3607 39.0006 42.4834Q38.8169 42.6061 38.6274 42.7197Q38.4379 42.8333 38.2431 42.9374Q38.0483 43.0415 37.8486 43.136Q37.6489 43.2304 37.4448 43.315Q37.2407 43.3995 37.0327 43.4739Q36.8247 43.5484 36.6133 43.6125Q36.4019 43.6766 36.1876 43.7303Q35.9733 43.784 35.7566 43.8271Q35.5399 43.8702 35.3214 43.9026Q35.1029 43.935 34.8831 43.9567Q34.6632 43.9783 34.4426 43.9892Q34.2219 44 34.001 44L8.999 44Q8.77809 44 8.55744 43.9892Q8.33679 43.9783 8.11694 43.9567Q7.89709 43.935 7.67857 43.9026Q7.46005 43.8702 7.24338 43.8271Q7.02671 43.784 6.81242 43.7303Q6.59813 43.6766 6.38673 43.6125Q6.17533 43.5484 5.96733 43.4739Q5.75933 43.3995 5.55523 43.315Q5.35113 43.2304 5.15143 43.136Q4.95173 43.0415 4.7569 42.9374Q4.56207 42.8333 4.37259 42.7197Q4.1831 42.6061 3.99942 42.4834Q3.81574 42.3607 3.6383 42.2291Q3.46086 42.0975 3.29009 41.9573Q3.11933 41.8172 2.95564 41.6688Q2.79195 41.5205 2.63575 41.3643Q2.47954 41.208 2.33118 41.0444Q2.18282 40.8807 2.04268 40.7099Q1.90253 40.5391 1.77094 40.3617Q1.63934 40.1843 1.5166 40.0006Q1.39387 39.8169 1.2803 39.6274Q1.16673 39.4379 1.06259 39.2431Q0.958453 39.0483 0.864 38.8486Q0.769548 38.6489 0.685008 38.4448Q0.600468 38.2407 0.526045 38.0327Q0.451622 37.8247 0.387494 37.6133Q0.323366 37.4019 0.269689 37.1876Q0.216011 36.9733 0.172913 36.7566Q0.129815 36.5399 0.0974006 36.3214Q0.0649859 36.1029 0.0433326 35.8831Q0.0216794 35.6632 0.0108397 35.4426Q0 35.2219 0 35.001L0 8.999Q0 8.77809 0.0108397 8.55744Q0.0216794 8.33679 0.0433326 8.11694Q0.0649859 7.89709 0.0974006 7.67857Q0.129815 7.46005 0.172913 7.24338Q0.216011 7.02671 0.269689 6.81242Q0.323366 6.59813 0.387494 6.38673Q0.451622 6.17533 0.526045 5.96733Q0.600468 5.75933 0.685008 5.55523Q0.769548 5.35113 0.864 5.15143Q0.958453 4.95173 1.06259 4.7569Q1.16673 4.56207 1.2803 4.37259Q1.39387 4.1831 1.5166 3.99942Q1.63934 3.81574 1.77094 3.6383Q1.90253 3.46086 2.04268 3.29009Q2.18282 3.11933 2.33118 2.95564Q2.47954 2.79195 2.63575 2.63575Q2.79195 2.47954 2.95564 2.33118Q3.11933 2.18282 3.29009 2.04268Q3.46086 1.90253 3.6383 1.77094Q3.81574 1.63934 3.99942 1.5166Q4.1831 1.39387 4.37259 1.2803Q4.56207 1.16673 4.7569 1.06259Q4.95173 0.958453 5.15143 0.864Q5.35113 0.769548 5.55523 0.685008Q5.75933 0.600468 5.96733 0.526045Q6.17533 0.451622 6.38673 0.387494Q6.59813 0.323366 6.81242 0.269689Q7.02671 0.216011 7.24338 0.172913Q7.46005 0.129815 7.67857 0.0974006Q7.89709 0.0649859 8.11694 0.0433326Q8.33679 0.0216794 8.55744 0.0108397Q8.77809 0 8.999 0Z" transform="translate(8 61.999977)" id="Rectangle-3" fill="#2CFFC7" fill-opacity="0.49803922" fill-rule="evenodd" stroke="none" />
      <path d="M0 24.5C0 10.969 10.969 0 24.5 0C38.031 0 49 10.969 49 24.5C49 38.031 38.031 49 24.5 49C10.969 49 0 38.031 0 24.5Z" transform="translate(29 61.999977)" id="Ellipse-2" fill="#F3FF00" fill-opacity="0.7294118" fill-rule="evenodd" stroke="none" />
      <path d="M4.999 0L90.001 0Q90.1237 0 90.2463 0.00602151Q90.3689 0.012043 90.491 0.0240715Q90.6131 0.0361001 90.7345 0.0541066Q90.8559 0.0721132 90.9762 0.0960544Q91.0966 0.119996 91.2157 0.149814Q91.3347 0.179632 91.4521 0.215255Q91.5696 0.250879 91.6851 0.292221Q91.8006 0.333564 91.914 0.380526Q92.0274 0.427489 92.1383 0.479957Q92.2493 0.532426 92.3575 0.590276Q92.4657 0.648125 92.571 0.711215Q92.6763 0.774305 92.7783 0.842483Q92.8803 0.910662 92.9789 0.983765Q93.0775 1.05687 93.1723 1.13472Q93.2672 1.21257 93.3581 1.29499Q93.449 1.3774 93.5358 1.46417Q93.6226 1.55095 93.705 1.64188Q93.7874 1.73281 93.8653 1.82767Q93.9431 1.92253 94.0162 2.0211Q94.0893 2.11967 94.1575 2.2217Q94.2257 2.32374 94.2888 2.429Q94.3519 2.53426 94.4097 2.64249Q94.4676 2.75072 94.52 2.86165Q94.5725 2.97259 94.6195 3.08597Q94.6664 3.19934 94.7078 3.31489Q94.7491 3.43043 94.7847 3.54787Q94.8204 3.6653 94.8502 3.78434Q94.88 3.90338 94.9039 4.02374Q94.9279 4.1441 94.9459 4.26549Q94.9639 4.38688 94.9759 4.50901Q94.988 4.63114 94.994 4.75371Q95 4.87628 95 4.999L95 18.001Q95 18.1237 94.994 18.2463Q94.988 18.3689 94.9759 18.491Q94.9639 18.6131 94.9459 18.7345Q94.9279 18.8559 94.9039 18.9763Q94.88 19.0966 94.8502 19.2157Q94.8204 19.3347 94.7847 19.4521Q94.7491 19.5696 94.7078 19.6851Q94.6664 19.8007 94.6195 19.914Q94.5725 20.0274 94.52 20.1383Q94.4676 20.2493 94.4097 20.3575Q94.3519 20.4657 94.2888 20.571Q94.2257 20.6763 94.1575 20.7783Q94.0893 20.8803 94.0162 20.9789Q93.9431 21.0775 93.8653 21.1723Q93.7874 21.2672 93.705 21.3581Q93.6226 21.449 93.5358 21.5358Q93.449 21.6226 93.3581 21.705Q93.2672 21.7874 93.1723 21.8653Q93.0775 21.9431 92.9789 22.0162Q92.8803 22.0893 92.7783 22.1575Q92.6763 22.2257 92.571 22.2888Q92.4657 22.3519 92.3575 22.4097Q92.2493 22.4676 92.1383 22.52Q92.0274 22.5725 91.914 22.6195Q91.8006 22.6664 91.6851 22.7078Q91.5696 22.7491 91.4521 22.7847Q91.3347 22.8204 91.2157 22.8502Q91.0966 22.88 90.9762 22.9039Q90.8559 22.9279 90.7345 22.9459Q90.6131 22.9639 90.491 22.9759Q90.3689 22.988 90.2463 22.994Q90.1237 23 90.001 23L4.999 23Q4.87628 23 4.75371 22.994Q4.63114 22.988 4.50901 22.9759Q4.38688 22.9639 4.26549 22.9459Q4.1441 22.9279 4.02374 22.9039Q3.90338 22.88 3.78434 22.8502Q3.6653 22.8204 3.54787 22.7847Q3.43043 22.7491 3.31489 22.7078Q3.19934 22.6664 3.08597 22.6195Q2.97259 22.5725 2.86165 22.52Q2.75072 22.4676 2.64249 22.4097Q2.53426 22.3519 2.429 22.2888Q2.32374 22.2257 2.2217 22.1575Q2.11967 22.0893 2.0211 22.0162Q1.92253 21.9431 1.82767 21.8653Q1.73281 21.7874 1.64188 21.705Q1.55095 21.6226 1.46417 21.5358Q1.3774 21.449 1.29499 21.3581Q1.21257 21.2672 1.13472 21.1723Q1.05687 21.0775 0.983765 20.9789Q0.910662 20.8803 0.842483 20.7783Q0.774305 20.6763 0.711215 20.571Q0.648125 20.4657 0.590276 20.3575Q0.532426 20.2493 0.479957 20.1383Q0.427489 20.0274 0.380526 19.914Q0.333564 19.8007 0.292221 19.6851Q0.250879 19.5696 0.215255 19.4521Q0.179632 19.3347 0.149814 19.2157Q0.119996 19.0966 0.0960544 18.9763Q0.0721132 18.8559 0.0541066 18.7345Q0.0361001 18.6131 0.0240715 18.491Q0.012043 18.3689 0.00602151 18.2463Q0 18.1237 0 18.001L0 4.999Q0 4.87628 0.00602151 4.75371Q0.012043 4.63114 0.0240715 4.50901Q0.0361001 4.38688 0.0541066 4.26549Q0.0721132 4.1441 0.0960544 4.02374Q0.119996 3.90338 0.149814 3.78434Q0.179632 3.6653 0.215255 3.54787Q0.250879 3.43043 0.292221 3.31489Q0.333564 3.19934 0.380526 3.08597Q0.427489 2.97259 0.479957 2.86165Q0.532426 2.75072 0.590276 2.64249Q0.648125 2.53426 0.711215 2.429Q0.774305 2.32374 0.842483 2.2217Q0.910662 2.11967 0.983765 2.0211Q1.05687 1.92253 1.13472 1.82767Q1.21257 1.73281 1.29499 1.64188Q1.3774 1.55095 1.46417 1.46417Q1.55095 1.3774 1.64188 1.29499Q1.73281 1.21257 1.82767 1.13472Q1.92253 1.05687 2.0211 0.983765Q2.11967 0.910662 2.2217 0.842483Q2.32374 0.774305 2.429 0.711215Q2.53426 0.648125 2.64249 0.590276Q2.75072 0.532426 2.86165 0.479957Q2.97259 0.427489 3.08597 0.380526Q3.19934 0.333564 3.31489 0.292221Q3.43043 0.250879 3.54787 0.215255Q3.6653 0.179632 3.78434 0.149814Q3.90338 0.119996 4.02374 0.0960544Q4.1441 0.0721132 4.26549 0.0541066Q4.38688 0.0361001 4.50901 0.0240715Q4.63114 0.012043 4.75371 0.00602151Q4.87628 0 4.999 0Z" transform="matrix(-4.371139E-08 1 -1 -4.371139E-08 23 -3.8146973E-06)" id="Rectangle-4" fill="#FF33D7" fill-opacity="0.5411765" fill-rule="evenodd" stroke="none" />
    </g>
    <g id="renti-Logo-Name" transform="translate(5 112.99998)">
      <g id="irent">
        <path d="M5.15039 15.7559Q3.74414 15.7559 2.84766 14.9209Q1.95117 14.0859 1.95117 12.873Q1.95117 11.625 2.84766 10.834Q3.74414 10.043 5.15039 10.043Q6.57422 10.043 7.46191 10.834Q8.34961 11.625 8.34961 12.873Q8.34961 14.1387 7.46191 14.9473Q6.57422 15.7559 5.15039 15.7559ZM75.3223 37.043Q77.8008 37.043 79.0313 36.3926L79.0313 32.2793Q78.0996 32.7891 77.2207 32.7891Q74.9883 32.7891 74.9883 29.9766L74.9883 22.6992L79.0313 22.6992L79.0313 18.6035L74.9883 18.6035L74.9883 13.1367L69.4512 14.7188L69.4512 18.6035L66.5332 18.6035L66.5332 22.6992L69.4512 22.6992L69.4512 30.9434Q69.4512 37.043 75.3223 37.043ZM31.3242 29.1855L43.0664 29.1855L43.0664 26.8477Q43.0664 22.8398 40.9131 20.502Q38.7598 18.1641 34.8223 18.1641Q31.0254 18.1641 28.4238 20.7832Q25.8223 23.4023 25.8223 27.8848Q25.8223 32.209 28.2305 34.626Q30.6387 37.043 34.998 37.043Q38.9883 37.043 41.4844 35.707L41.4844 31.6992Q39.2344 33.1055 36.2637 33.1055Q31.6055 33.1055 31.3242 29.1855ZM63.7559 36.6035L58.2188 36.6035L58.2188 26.6016Q58.2188 22.418 55.2305 22.418Q53.7891 22.418 52.8574 23.5254Q51.9258 24.6328 51.9258 26.3379L51.9258 36.6035L46.3711 36.6035L46.3711 18.6035L51.9258 18.6035L51.9258 21.4512L51.9961 21.4512Q53.9824 18.1641 57.7793 18.1641Q63.7559 18.1641 63.7559 25.582L63.7559 36.6035ZM24.3105 23.6133Q23.3086 23.0684 21.9727 23.0684Q20.1621 23.0684 19.1426 24.3955Q18.123 25.7227 18.123 28.0078L18.123 36.6035L12.5684 36.6035L12.5684 18.6035L18.123 18.6035L18.123 21.9434L18.1934 21.9434Q19.5117 18.2871 22.9395 18.2871Q23.8184 18.2871 24.3105 18.498L24.3105 23.6133ZM7.89258 36.6035L2.33789 36.6035L2.33789 18.6035L7.89258 18.6035L7.89258 36.6035ZM34.7871 21.9082Q37.916 21.9082 37.916 25.7754L31.2891 25.7754Q31.5 24.123 32.4756 23.0156Q33.4512 21.9082 34.7871 21.9082Z" />
      </g>
      <path d="M0 4.5C0 2.01472 2.01472 0 4.5 0C6.98528 0 9 2.01472 9 4.5C9 6.98528 6.98528 9 4.5 9C2.01472 9 0 6.98528 0 4.5Z" transform="translate(65 8.332504)" id="Ellipse-3" fill="#FFFFFF" fill-rule="evenodd" stroke="none" />
      <g id="Symbol-Instance-4" transform="translate(9 4)">
        <path d="M5.5 11C2.4881 11 0 8.51191 0 5.5C0 2.4881 2.48387 0 5.49578 0C8.50768 0 11 2.4881 11 5.5C11 8.51191 8.51191 11 5.5 11ZM4.82414 8.26267C4.98043 8.26267 5.11561 8.19086 5.21699 8.03456L8.0557 3.5864C8.11907 3.49347 8.17398 3.37942 8.17398 3.27803C8.17398 3.05415 7.97544 2.91475 7.76845 2.91475C7.64595 2.91475 7.52344 2.98656 7.43051 3.13018L4.80301 7.30799L3.40478 5.55491C3.29495 5.41551 3.18089 5.36482 3.04572 5.36482C2.83873 5.36482 2.66553 5.52957 2.66553 5.75346C2.66553 5.85906 2.70778 5.97312 2.77959 6.06183L4.41016 8.03879C4.54111 8.19931 4.66784 8.26267 4.82414 8.26267Z" id="Selected" fill="#007AFF" fill-rule="evenodd" stroke="none" />
      </g>
    </g>
  </g>
</svg>