<?xml version="1.0" encoding="utf-8"?>
<svg width="80px" height="48px" viewbox="0 0 80 48" version="1.1" xmlns:xlink="http://www.w3.org/1999/xlink" xmlns="http://www.w3.org/2000/svg">
  <g id="irent">
    <path d="M5.15039 15.7559Q3.74414 15.7559 2.84766 14.9209Q1.95117 14.0859 1.95117 12.873Q1.95117 11.625 2.84766 10.834Q3.74414 10.043 5.15039 10.043Q6.57422 10.043 7.46191 10.834Q8.34961 11.625 8.34961 12.873Q8.34961 14.1387 7.46191 14.9473Q6.57422 15.7559 5.15039 15.7559ZM75.3223 37.043Q77.8008 37.043 79.0313 36.3926L79.0313 32.2793Q78.0996 32.7891 77.2207 32.7891Q74.9883 32.7891 74.9883 29.9766L74.9883 22.6992L79.0313 22.6992L79.0313 18.6035L74.9883 18.6035L74.9883 13.1367L69.4512 14.7188L69.4512 18.6035L66.5332 18.6035L66.5332 22.6992L69.4512 22.6992L69.4512 30.9434Q69.4512 37.043 75.3223 37.043ZM31.3242 29.1855L43.0664 29.1855L43.0664 26.8477Q43.0664 22.8398 40.9131 20.502Q38.7598 18.1641 34.8223 18.1641Q31.0254 18.1641 28.4238 20.7832Q25.8223 23.4023 25.8223 27.8848Q25.8223 32.209 28.2305 34.626Q30.6387 37.043 34.998 37.043Q38.9883 37.043 41.4844 35.707L41.4844 31.6992Q39.2344 33.1055 36.2637 33.1055Q31.6055 33.1055 31.3242 29.1855ZM63.7559 36.6035L58.2188 36.6035L58.2188 26.6016Q58.2188 22.418 55.2305 22.418Q53.7891 22.418 52.8574 23.5254Q51.9258 24.6328 51.9258 26.3379L51.9258 36.6035L46.3711 36.6035L46.3711 18.6035L51.9258 18.6035L51.9258 21.4512L51.9961 21.4512Q53.9824 18.1641 57.7793 18.1641Q63.7559 18.1641 63.7559 25.582L63.7559 36.6035ZM24.3105 23.6133Q23.3086 23.0684 21.9727 23.0684Q20.1621 23.0684 19.1426 24.3955Q18.123 25.7227 18.123 28.0078L18.123 36.6035L12.5684 36.6035L12.5684 18.6035L18.123 18.6035L18.123 21.9434L18.1934 21.9434Q19.5117 18.2871 22.9395 18.2871Q23.8184 18.2871 24.3105 18.498L24.3105 23.6133ZM7.89258 36.6035L2.33789 36.6035L2.33789 18.6035L7.89258 18.6035L7.89258 36.6035ZM34.7871 21.9082Q37.916 21.9082 37.916 25.7754L31.2891 25.7754Q31.5 24.123 32.4756 23.0156Q33.4512 21.9082 34.7871 21.9082Z" />
  </g>
</svg>