<?xml version="1.0" encoding="utf-8"?>
<svg width="62px" height="62px" viewbox="0 0 62 62" version="1.1" xmlns:xlink="http://www.w3.org/1999/xlink" xmlns="http://www.w3.org/2000/svg">
  <path d="M30.9153 0C13.8412 0 0 13.8412 0 30.9153C0 47.9893 13.8412 61.8305 30.9153 61.8305C47.9893 61.8305 61.8305 47.9893 61.8305 30.9153C61.8305 13.8412 47.9893 0 30.9153 0ZM26.8351 45.3689L40.6116 33.3637Q40.7731 33.2229 40.9011 33.0512Q41.0291 32.8794 41.1178 32.6845Q41.2066 32.4895 41.2519 32.2801Q41.2973 32.0708 41.2973 31.8566Q41.2973 31.6424 41.2519 31.433Q41.2066 31.2237 41.1178 31.0287Q41.0291 30.8338 40.9011 30.662Q40.7731 30.4903 40.6116 30.3495L26.8351 18.3443Q26.7272 18.2502 26.607 18.1725Q26.4867 18.0948 26.3567 18.035Q26.2266 17.9752 26.0894 17.9346Q25.9521 17.894 25.8105 17.8733Q25.6688 17.8526 25.5257 17.8523Q25.3825 17.8521 25.2408 17.8722Q25.0991 17.8923 24.9617 17.9324Q24.8242 17.9725 24.6939 18.0318Q24.5637 18.0911 24.4431 18.1683Q24.3226 18.2456 24.2143 18.3392Q24.106 18.4328 24.0122 18.5409Q23.9184 18.649 23.8409 18.7694Q23.7634 18.8898 23.7039 19.02Q23.6444 19.1501 23.604 19.2875Q23.5636 19.4248 23.5432 19.5665Q23.5228 19.7082 23.5228 19.8513L23.5228 43.8619Q23.5228 44.005 23.5432 44.1467Q23.5636 44.2884 23.604 44.4257Q23.6444 44.563 23.7039 44.6932Q23.7634 44.8234 23.8409 44.9438Q23.9184 45.0641 24.0122 45.1722Q24.106 45.2803 24.2143 45.374Q24.3226 45.4676 24.4431 45.5448Q24.5636 45.6221 24.6939 45.6814Q24.8242 45.7407 24.9617 45.7808Q25.0991 45.8209 25.2408 45.841Q25.3825 45.8611 25.5257 45.8609Q25.6688 45.8606 25.8105 45.8399Q25.9521 45.8192 26.0894 45.7786Q26.2266 45.7379 26.3567 45.6782Q26.4867 45.6184 26.607 45.5407Q26.7272 45.463 26.8351 45.3689Z" id="Play-Button" fill="#FFFFFF" fill-opacity="0.70980394" fill-rule="evenodd" stroke="none" />
</svg>